<?xml version="1.0" encoding="UTF-8"?>
<svg id="Layer_1" xmlns="http://www.w3.org/2000/svg" version="1.1" viewBox="0 0 250 150">
  <!-- Generator: Adobe Illustrator 30.2.1, SVG Export Plug-In . SVG Version: 2.1.1 Build 1)  -->
  <defs>
    <style>
      .st0 {
        fill: #00a651;
        font-family: Impact, Impact;
        font-size: 23.97px;
      }

      .st1 {
        fill: #231f20;
      }
    </style>
  </defs>
  <text class="st0" transform="translate(121.8 116.47) scale(1.06 1)"><tspan x="0" y="0" xml:space="preserve"> att’s Trash</tspan></text>
  <path class="st1" d="M19.35,42.89c9.78,7.51,20.23,14.27,28.98,23.04,3.96,3.97,7.54,8.31,10.37,13.16,2.67,4.57,5,9.83,5.39,15.16.18,2.52-.01,5.17-1.22,7.44s-3.06,3.76-5.29,4.76c-5.31,2.38-11.44.96-16.62-1.04s-10.09-5.15-14.14-9.02c-1.71-1.63-3.71-3.73-3.87-6.22-.14-2.3,1.77-4.08,3.56-5.2,2.77-1.75,5.95-2.69,9.12-3.43,3.48-.82,7.01-1.41,10.56-1.76,7.3-.72,14.72-.55,21.97.6,1.33.21,2.69-.34,3.08-1.75.33-1.19-.4-2.86-1.75-3.08-7.32-1.16-14.72-1.52-22.11-.89-6.93.59-14.21,1.66-20.61,4.52-2.88,1.29-5.64,3.12-7.37,5.82-1.86,2.9-1.79,6.38-.35,9.43s3.84,5.27,6.27,7.32,5.14,3.96,7.97,5.53c5.87,3.25,12.9,5.86,19.71,5.31,6.27-.51,12.3-3.78,14.81-9.77s1.16-12.75-1.08-18.55-5.7-11.35-9.75-16.28c-9.78-11.9-23.02-20.17-35.11-29.46-1.07-.82-2.8-.17-3.42.9-.75,1.29-.18,2.6.9,3.42h0Z"/>
  <path class="st1" d="M43.68,36.03h59.49c3.22,0,3.22-5,0-5h-59.49c-3.22,0-3.22,5,0,5h0Z"/>
  <path class="st1" d="M71.92,38.59v76.49c0,3.22,5,3.22,5,0V38.59c0-3.22-5-3.22-5,0h0Z"/>
  <path class="st1" d="M76.09,61.15c6.75,6.75,13.5,13.5,20.25,20.25,2.28,2.28,5.81-1.26,3.54-3.54-6.75-6.75-13.5-13.5-20.25-20.25-2.28-2.28-5.81,1.26-3.54,3.54h0Z"/>
  <path class="st1" d="M100.83,80.73l16.42-16.49c.95-.96.96-2.58,0-3.54s-2.58-.96-3.54,0l-16.42,16.49c-.95.96-.96,2.58,0,3.54s2.58.96,3.54,0h0Z"/>
  <path class="st1" d="M117.41,64.05l1.27-1.27c.24-.23.42-.49.52-.8.16-.3.23-.62.22-.96.01-.34-.06-.67-.22-.96-.1-.31-.27-.58-.52-.8l-.51-.39c-.39-.23-.81-.34-1.26-.34l-.66.09c-.42.12-.79.33-1.1.64l-1.27,1.27c-.24.23-.42.49-.52.8-.16.3-.23.62-.22.96-.01.34.06.67.22.96.1.31.27.58.52.8l.51.39c.39.23.81.34,1.26.34l.66-.09c.42-.12.79-.33,1.1-.64h0Z"/>
  <path class="st1" d="M118.86,62.78l1.99-1.99c.24-.23.42-.49.52-.8.16-.3.23-.62.22-.96.01-.34-.06-.67-.22-.96-.1-.31-.27-.58-.52-.8l-.51-.39c-.39-.23-.81-.34-1.26-.34l-.66.09c-.42.12-.79.33-1.1.64l-1.99,1.99c-.24.23-.42.49-.52.8-.16.3-.23.62-.22.96-.01.34.06.67.22.96.1.31.27.58.52.8l.51.39c.39.23.81.34,1.26.34l.66-.09c.42-.12.79-.33,1.1-.64h0Z"/>
  <path class="st1" d="M119.3,59.57v55.69c0,3.22,5,3.22,5,0v-55.69c0-3.22-5-3.22-5,0h0Z"/>
</svg>