<?xml version="1.0" encoding="UTF-8"?>
<svg id="Layer_1" data-name="Layer 1" xmlns="http://www.w3.org/2000/svg" viewBox="0 0 216.63 92.31">
  <defs>
    <style>
      .cls-1 {
        fill: #231f20;
      }

      .cls-2 {
        fill: #00a651;
        font-family: Impact, Impact;
        font-size: 23.69px;
      }
    </style>
  </defs>
  <text class="cls-2" transform="translate(103.8 84.47) scale(1.08 1)"><tspan x="0" y="0" xml:space="preserve"> att’s Trash</tspan></text>
  <path class="cls-1" d="M1.36,11.77c9.8,7.43,20.25,14.11,29.02,22.81,3.96,3.92,7.53,8.22,10.37,13.02,2.68,4.54,5.02,9.79,5.37,15.12.16,2.5-.09,5.09-1.34,7.31s-3.14,3.67-5.37,4.6c-5.37,2.24-11.44.83-16.64-1.18s-10.07-5.12-14.1-8.97c-1.64-1.57-3.56-3.59-3.71-5.98s1.9-4.11,3.72-5.22c2.81-1.7,6-2.62,9.17-3.34,3.49-.8,7.02-1.37,10.58-1.71,7.23-.68,14.56-.51,21.73.62,1.33.21,2.69-.34,3.08-1.75.33-1.19-.4-2.86-1.75-3.08-7.32-1.15-14.72-1.5-22.11-.88-6.93.58-14.21,1.64-20.61,4.47-2.87,1.27-5.63,3.08-7.37,5.76-1.86,2.87-1.79,6.33-.35,9.35,1.32,2.77,3.64,5.01,5.95,6.97,2.51,2.14,5.22,4.05,8.11,5.64,5.87,3.25,12.87,5.84,19.67,5.37,6.15-.42,12.34-3.52,14.91-9.39s1.37-12.54-.82-18.3c-2.31-6.06-5.78-11.52-9.92-16.49C29.16,24.77,15.95,16.62,3.88,7.46c-1.08-.82-2.8-.17-3.42.9-.75,1.28-.18,2.6.9,3.42h0Z"/>
  <path class="cls-1" d="M25.69,5h59.49c3.22,0,3.22-5,0-5H25.69c-3.22,0-3.22,5,0,5h0Z"/>
  <path class="cls-1" d="M53.93,7.5v75.59c0,3.22,5,3.22,5,0V7.5c0-3.22-5-3.22-5,0h0Z"/>
  <path class="cls-1" d="M58.09,29.82c6.75,6.67,13.5,13.34,20.25,20.02,2.29,2.26,5.83-1.27,3.54-3.54-6.75-6.67-13.5-13.34-20.25-20.02-2.29-2.26-5.83,1.27-3.54,3.54h0Z"/>
  <path class="cls-1" d="M82.83,49.17l16.42-16.29c.96-.95.95-2.58,0-3.54s-2.57-.95-3.54,0l-16.42,16.29c-.96.95-.95,2.58,0,3.54s2.57.95,3.54,0h0Z"/>
  <path class="cls-1" d="M99.42,32.68l1.27-1.25c.24-.23.42-.49.52-.8.16-.3.23-.62.22-.96.01-.34-.06-.67-.22-.96-.1-.31-.27-.58-.52-.8l-.51-.39c-.39-.23-.81-.34-1.26-.34l-.66.09c-.42.12-.79.33-1.1.64l-1.27,1.25c-.24.23-.42.49-.52.8-.16.3-.23.62-.22.96-.01.34.06.67.22.96.1.31.27.58.52.8l.51.39c.39.23.81.34,1.26.34l.66-.09c.42-.12.79-.33,1.1-.64h0Z"/>
  <path class="cls-1" d="M100.87,31.43l1.99-1.97c.24-.23.42-.49.52-.8.16-.3.23-.62.22-.96.01-.34-.06-.67-.22-.96-.1-.31-.27-.58-.52-.8l-.51-.39c-.39-.23-.81-.34-1.26-.34l-.66.09c-.42.12-.79.33-1.1.64l-1.99,1.97c-.24.23-.42.49-.52.8-.16.3-.23.62-.22.96-.01.34.06.67.22.96.1.31.27.58.52.8l.51.39c.39.23.81.34,1.26.34l.66-.09c.42-.12.79-.33,1.1-.64h0Z"/>
  <path class="cls-1" d="M101.3,28.23v55.04c0,3.22,5,3.22,5,0V28.23c0-3.22-5-3.22-5,0h0Z"/>
</svg>